# xmcd CD database file
#
# Track frame offsets:
#	150
#	24055
#	64507
#	117950
#	158262
#	194822
#	219721
#	259239
#	282654
#
# Disc length: 4008 seconds
#
# Revision: 0
# Processed by: cddbd v1.4PL0 Copyright (c) Steve Scherf et al.
# Submitted via: CDex 1.50Beta7
#
DISCID=7f0fa609
DTITLE=James Emery, Joe Lovano, Judi Silvano, Drew Gress - Fourth World
DYEAR=2001
DGENRE=Jazz
TTITLE0=Bellflower
TTITLE1=Golden Horn
TTITLE2=Fourth World
TTITLE3=Worship
TTITLE4=Splendido
TTITLE5=La Scala
TTITLE6=The Next Level
TTITLE7=In A Secret Place
TTITLE8=Hannah's Song
EXTD=YEAR: 2001
EXTT0=
EXTT1=
EXTT2=
EXTT3=
EXTT4=
EXTT5=
EXTT6=
EXTT7=
EXTT8=
PLAYORDER=
